# xmcd
#
# Track frame offsets: 
#        150
#        15515
#        29602
#        43952
#        58162
#        71515
#        84200
#        105790
#        117932
#        132385
#
# Disc length: 1988 seconds
#
# Revision: 4
# Processed by: cddbd v1.5.2PL0 Copyright (c) Steve Scherf et al.
# Submitted via: ExactAudioCopy v0.99pb5
#
DISCID=7f07c20a
DTITLE=Jimmie Dale Gilmore - Fair and Square
DYEAR=1988
DGENRE=Country
TTITLE0=White Freight Liner Blues
TTITLE1=Honky Tonk Masquerade
TTITLE2=Fair and Square
TTITLE3=Don't Look For A Heartache
TTITLE4=Trying To Get To You
TTITLE5=Singing The Blues
TTITLE6=Just A Wave, Not The Water
TTITLE7=All Grown Up
TTITLE8=99 Holes
TTITLE9=Rain Just Falls
EXTD=YEAR: 1988
EXTT0=
EXTT1=
EXTT2=
EXTT3=
EXTT4=
EXTT5=
EXTT6=
EXTT7=
EXTT8=
EXTT9=
PLAYORDER=
